<?xml version="1.0" standalone="no"?>
<!DOCTYPE svg PUBLIC "-//W3C//DTD SVG 20010904//EN"
 "http://www.w3.org/TR/2001/REC-SVG-20010904/DTD/svg10.dtd">
<svg version="1.0" xmlns="http://www.w3.org/2000/svg"
 width="256.000000pt" height="256.000000pt" viewBox="0 0 256.000000 256.000000"
 preserveAspectRatio="xMidYMid meet">
<metadata>
Created by potrace 1.14, written by Peter Selinger 2001-2017
</metadata>
<g transform="translate(0.000000,256.000000) scale(0.100000,-0.100000)"
fill="#000000" stroke="none">
<path d="M255 2396 c-37 -17 -80 -62 -94 -99 -8 -19 -11 -343 -11 -1018 0
-818 2 -995 14 -1022 16 -39 61 -82 99 -96 39 -15 1995 -15 2034 0 38 14 83
57 99 96 21 48 21 1998 0 2046 -16 39 -61 82 -99 96 -19 8 -343 11 -1020 11
-807 -1 -998 -3 -1022 -14z m1849 -540 c67 -51 66 -42 66 -576 0 -534 1 -525
-66 -576 l-37 -29 -787 0 -787 0 -37 29 c-67 51 -66 42 -66 576 0 507 1 522
46 562 57 50 22 48 855 46 l776 -3 37 -29z"/>
<path d="M505 1775 l-25 -24 0 -471 0 -471 25 -24 24 -25 751 0 751 0 24 25
25 24 0 471 0 471 -25 24 -24 25 -751 0 -751 0 -24 -25z m559 -120 c45 -22 92
-82 107 -138 22 -82 -28 -185 -112 -227 -47 -24 -128 -26 -175 -4 -48 23 -101
86 -114 135 -27 99 38 218 137 249 40 13 112 6 157 -15z m817 -65 c21 -12 25
-40 7 -58 -16 -16 -480 -17 -509 -2 -24 13 -25 46 -1 59 23 14 477 14 503 1z
m7 -242 c18 -18 14 -46 -7 -58 -11 -5 -81 -10 -156 -10 -140 0 -175 8 -175 38
0 37 19 42 175 42 104 0 155 -4 163 -12z m-741 -157 c24 -14 55 -42 70 -64 24
-35 28 -52 32 -129 3 -93 -5 -118 -40 -118 -35 0 -49 28 -49 96 0 70 -17 117
-49 134 -11 5 -75 10 -143 10 -164 -1 -188 -19 -188 -144 0 -68 -14 -96 -49
-96 -35 0 -43 25 -40 118 4 77 8 94 31 128 53 76 104 94 263 91 106 -2 125 -5
162 -26z m741 -3 c18 -18 14 -46 -7 -58 -11 -5 -81 -10 -156 -10 -75 0 -145 5
-156 10 -21 12 -25 40 -7 58 17 17 309 17 326 0z m0 -160 c18 -18 14 -46 -7
-58 -12 -6 -111 -10 -251 -10 -140 0 -239 4 -251 10 -24 13 -25 46 -1 59 26
16 495 14 510 -1z"/>
<path d="M924 1576 c-43 -19 -64 -53 -64 -104 0 -37 6 -50 34 -78 28 -28 42
-34 76 -34 34 0 48 6 76 34 28 28 34 41 34 78 0 52 -21 85 -66 104 -41 17 -50
17 -90 0z"/>
</g>
</svg>
