<?xml version="1.0" standalone="no"?>
<!DOCTYPE svg PUBLIC "-//W3C//DTD SVG 20010904//EN"
 "http://www.w3.org/TR/2001/REC-SVG-20010904/DTD/svg10.dtd">
<svg version="1.0" xmlns="http://www.w3.org/2000/svg"
 width="512.000000pt" height="512.000000pt" viewBox="0 0 512.000000 512.000000"
 preserveAspectRatio="xMidYMid meet">
<metadata>
Created by potrace 1.14, written by Peter Selinger 2001-2017
</metadata>
<g transform="translate(0.000000,512.000000) scale(0.100000,-0.100000)"
fill="#000000" stroke="none">
<path d="M273 5105 c-100 -31 -190 -112 -241 -215 l-27 -55 0 -2275 0 -2275
29 -60 c38 -77 114 -153 191 -191 l60 -29 2275 0 2275 0 60 29 c77 38 153 114
191 191 l29 60 0 2275 0 2275 -29 60 c-38 77 -114 153 -191 191 l-60 29 -2260
2 c-1857 1 -2268 -1 -2302 -12z m3774 -1437 c64 -34 115 -86 145 -147 l23 -46
0 -915 0 -915 -23 -46 c-30 -61 -81 -113 -145 -147 l-52 -27 -1435 0 -1435 0
-52 27 c-64 34 -115 86 -145 147 l-23 46 0 915 0 915 23 46 c40 82 122 149
207 170 17 4 667 6 1445 6 l1415 -2 52 -27z"/>
<path d="M1140 3495 c-57 -31 -55 7 -55 -935 0 -939 -2 -900 55 -933 26 -16
138 -17 1420 -17 1282 0 1394 1 1420 17 57 33 55 -6 55 933 0 939 2 900 -55
933 -26 16 -138 17 -1422 17 -1165 -1 -1397 -3 -1418 -15z m982 -215 c161 -60
255 -208 246 -384 -6 -109 -45 -193 -121 -262 -84 -76 -143 -98 -262 -98 -88
-1 -107 2 -158 26 -73 35 -160 117 -192 183 -94 191 -16 423 175 520 98 49
206 55 312 15z m1576 -147 c32 -27 37 -64 12 -96 l-21 -27 -474 0 -474 0 -20
26 c-12 15 -21 34 -21 44 0 10 9 29 21 44 l20 26 469 0 c431 0 469 -1 488 -17z
m-7 -434 c49 -26 43 -107 -10 -129 -19 -7 -116 -10 -310 -8 l-283 3 -19 24
c-26 32 -24 67 6 96 l24 25 286 0 c183 0 293 -4 306 -11z m-1399 -286 c165
-78 237 -223 226 -457 -4 -85 -6 -90 -36 -117 -35 -32 -57 -35 -97 -17 -44 20
-55 55 -55 181 0 140 -18 184 -95 232 -48 30 -49 30 -225 33 -107 3 -192 0
-216 -7 -58 -16 -105 -50 -131 -96 -20 -35 -23 -55 -23 -151 0 -128 -11 -169
-51 -189 -34 -18 -50 -19 -83 -4 -41 19 -56 65 -56 173 0 165 32 260 118 345
97 96 158 111 437 108 l220 -2 67 -32z m1406 -20 c32 -27 37 -64 12 -96 l-21
-27 -300 0 c-286 0 -300 1 -319 20 -26 26 -25 68 2 97 l21 23 293 0 c263 0
294 -2 312 -17z m12 -310 c25 -32 20 -69 -12 -95 -19 -17 -57 -18 -488 -18
l-469 0 -20 26 c-12 15 -21 34 -21 44 0 10 9 29 21 44 l20 26 474 0 474 0 21
-27z"/>
<path d="M1895 3104 c-82 -45 -121 -116 -113 -209 5 -61 37 -111 97 -152 128
-87 311 20 311 182 0 52 -44 131 -91 162 -52 35 -156 43 -204 17z"/>
</g>
</svg>
